<svg width="15" height="17" viewBox="0 0 15 17" fill="none" xmlns="http://www.w3.org/2000/svg">
<path d="M13.4167 8.04282L6.66672 9.13956L7.61671 1.3469C7.62368 1.25638 7.60712 1.16553 7.56914 1.08593C7.53116 1.00634 7.47349 0.94163 7.40349 0.900065C7.3335 0.8585 7.25436 0.84197 7.17619 0.852587C7.09802 0.863204 7.02436 0.900485 6.96463 0.959669L2.48963 6.09946C2.03 6.63393 1.69191 7.29127 1.50545 8.013C1.319 8.73474 1.28994 9.49848 1.42088 10.2363L2.13338 14.3732L5.71671 15.1933C6.35581 15.3445 7.01737 15.3109 7.64254 15.0957C8.2677 14.8804 8.83709 14.4901 9.30005 13.9595L13.75 8.79563C13.8015 8.72652 13.8339 8.64124 13.843 8.55073C13.8522 8.46023 13.8377 8.36863 13.8014 8.28771C13.7651 8.20678 13.7087 8.14023 13.6394 8.09659C13.5701 8.05295 13.4911 8.03423 13.4125 8.04282" stroke="#FFA629" stroke-width="1.5" stroke-linecap="round" stroke-linejoin="round"/>
</svg>
